{
 "asset": {
  "version": "2.0",
  "generator": "duckov-procedural"
 },
 "scenes": [
  {
   "nodes": [
    0
   ]
  }
 ],
 "nodes": [
  {
   "mesh": 0,
   "name": "DuckKovEnemy"
  }
 ],
 "meshes": [
  {
   "primitives": [
    {
     "attributes": {
      "POSITION": 0
     },
     "indices": 1,
     "material": 0
    }
   ]
  }
 ],
 "buffers": [
  {
   "byteLength": 2844,
   "uri": "data:application/octet-stream;base64,"
  }
 ],
 "bufferViews": [
  {
   "buffer": 0,
   "byteOffset": 0,
   "byteLength": 996,
   "target": 34962
  },
  {
   "buffer": 0,
   "byteOffset": 996,
   "byteLength": 1848,
   "target": 34963
  }
 ],
 "accessors": [
  {
   "bufferView": 0,
   "componentType": 5126,
   "count": 83,
   "type": "VEC3",
   "min": [
    -0.333,
    -0.45,
    0.8
   ],
   "max": [
    0.333,
    0.45,
    2.18
   ]
  },
  {
   "bufferView": 1,
   "componentType": 5125,
   "count": 462,
   "type": "SCALAR"
  }
 ],
 "materials": [
  {
   "pbrMetallicRoughness": {
    "baseColorFactor": [
     0.8,
     0.6,
     0.1,
     1.0
    ],
    "metallicFactor": 0.1,
    "roughnessFactor": 0.7
   }
  }
 ]
}