{
 "asset": {
  "version": "2.0",
  "generator": "duckov-procedural"
 },
 "scenes": [
  {
   "nodes": [
    0
   ]
  }
 ],
 "nodes": [
  {
   "mesh": 0,
   "name": "EnergyCore"
  }
 ],
 "meshes": [
  {
   "primitives": [
    {
     "attributes": {
      "POSITION": 0
     },
     "indices": 1,
     "material": 0
    }
   ]
  }
 ],
 "buffers": [
  {
   "byteLength": 3960,
   "uri": "data:application/octet-stream;base64,"
  }
 ],
 "bufferViews": [
  {
   "buffer": 0,
   "byteOffset": 0,
   "byteLength": 1368,
   "target": 34962
  },
  {
   "buffer": 0,
   "byteOffset": 1368,
   "byteLength": 2592,
   "target": 34963
  }
 ],
 "accessors": [
  {
   "bufferView": 0,
   "componentType": 5126,
   "count": 114,
   "type": "VEC3",
   "min": [
    -0.09,
    -0.3,
    -0.55
   ],
   "max": [
    0.09,
    0.3,
    0.85
   ]
  },
  {
   "bufferView": 1,
   "componentType": 5125,
   "count": 648,
   "type": "SCALAR"
  }
 ],
 "materials": [
  {
   "pbrMetallicRoughness": {
    "baseColorFactor": [
     0.0,
     0.0,
     0.0,
     1.0
    ],
    "metallicFactor": 0.1,
    "roughnessFactor": 0.7
   }
  }
 ]
}